<svg width="132" height="48" viewBox="0 0 132 48" fill="none" xmlns="http://www.w3.org/2000/svg">
<path d="M42.0943 31.7649C43.2649 31.7649 44.2124 30.8298 44.2124 29.6722C44.2124 28.5146 43.263 27.5795 42.0943 27.5795C40.9314 27.5795 39.98 28.5146 39.98 29.6722C39.98 30.8298 40.9314 31.7649 42.0943 31.7649Z" fill="#ED1C24"/>
<path fill-rule="evenodd" clip-rule="evenodd" d="M53.5998 21.6633C64.7907 15.9111 71.8846 5.06466 69.94 3.98436C66.7448 2.23098 52.536 6.2053 47.9833 21.3993C47.4457 21.5464 44.8625 22.2062 44.8625 22.2062L43.7396 25.2096L47.7317 24.0011C47.7317 24.0011 47.2951 31.5425 53.9982 31.7631C59.2658 31.5689 62.0168 23.9068 60.3353 18.7033C60.0036 18.8654 55.7998 20.8695 55.7998 20.8695C55.7998 20.8695 56.7759 26.584 54.4405 27.2835C53.6779 27.3815 52.7895 25.0927 53.5998 21.6633ZM54.6845 18.6448C57.3193 18.1207 67.6256 7.26486 65.4846 7.46094C61.2123 8.49788 53.8362 18.1697 54.6845 18.6448Z" fill="#ED1C24"/>
<path d="M63.0215 20.0268V17.8586C63.0215 17.8586 68.9277 13.956 70.3785 13.4733C71.7626 13.1566 72.9141 13.8636 72.569 15.3964C72.5088 15.7986 71.9142 17.2873 71.2016 19.0714C69.8404 22.4796 68.0487 26.9656 68.7294 27.0139C71.7626 26.6217 76.239 17.5381 77.0187 14.0521H82.2252C82.2252 14.0521 77.4953 27.7435 77.8671 27.932C78.2293 28.1074 79.7182 26.7216 79.7182 26.7216C79.7182 26.7216 80.1834 28.1884 80.3073 28.5014C79.4933 29.4705 77.3409 30.9222 75.6861 31.5349C74.0236 32.1382 72.4584 31.5406 72.1591 30.0813C71.8465 28.6202 72.5614 26.7895 72.5614 26.7895C72.5614 26.7895 69.5702 29.6967 66.7619 31.2106C65.9803 31.633 65.1186 31.7668 64.6401 31.7668C62.7374 31.7668 62.4152 29.5647 62.48 28.9614C62.5171 28.3558 63.3957 26.1017 64.2802 23.8326C65.2157 21.4326 66.1577 19.0157 66.1176 18.5147C65.9002 18.1735 63.0215 20.0268 63.0215 20.0268Z" fill="#ED1C24"/>
<path fill-rule="evenodd" clip-rule="evenodd" d="M99.6102 14.0465H94.6801C94.6801 14.0465 94.1768 15.2455 94.0681 15.4774C93.5 14.5027 91.5154 12.5947 87.4279 15.1173C83.1537 17.8492 81.3349 22.5117 81.9049 27.4588C82.5303 31.5557 86.0591 33.524 90.0264 28.5617C89.4316 29.3121 86.631 38.8538 86.631 38.8538H91.6164L99.6102 14.0465ZM90.0322 18.0566C91.1989 16.7482 92.6669 16.7199 92.6288 18.8013C92.4724 21.1919 90.8653 25.3623 89.2181 26.4765L89.1902 26.4919C88.4914 26.8776 87.4182 27.4698 87.2621 25.055C87.1801 22.1685 89.5899 18.5619 90.0322 18.0566Z" fill="#ED1C24"/>
<path d="M29.2872 16.361C26.6264 21.9799 21.9928 31.7649 18.1015 31.7649C17.4076 31.7649 16.3705 31.5066 15.6041 30.7205C13.7445 28.8018 14.3426 25.5191 14.9435 22.2203C15.1528 21.0718 15.3624 19.9213 15.4687 18.8258C15.3661 18.9269 15.0936 19.4483 14.686 20.2282C12.9282 23.5917 8.65768 31.7631 4.66482 31.7631C4.57905 31.7631 4.4894 31.7631 4.39982 31.7555C-0.0536604 31.3445 0.527809 25.2548 1.9138 21.5652H9.10115C6.89156 27.5814 9.93618 25.1247 12.0104 21.29C16.093 13.0873 16.1965 12.802 20.5406 0.831219C20.6147 0.626918 20.6901 0.419214 20.7668 0.208008H28.6576C26.3069 7.32519 24.3204 13.7674 23.3595 21.1486C23.3595 21.4276 23.4949 21.6991 23.7694 21.569C25.0081 21.3613 30.1968 10.3889 33.1112 4.2259C34.1129 2.1077 34.8459 0.557634 35.0576 0.208008H42.9541C42.9541 0.208008 34.5638 23.2055 35.9383 25.3962C36.4452 26.2957 37.0936 25.3018 37.7297 24.3268C37.9669 23.9632 38.2024 23.6022 38.4282 23.3431L39.675 24.5723C39.1735 25.1257 38.6549 25.7784 38.1125 26.461C35.9657 29.1628 33.4456 32.3344 30.137 31.6782C29.5784 31.5444 29.0255 31.2653 28.6156 30.8562C25.6573 28.3135 28.4078 21.0678 30.1363 16.5144C30.9185 14.4538 31.4915 12.9446 31.2313 12.672C31.029 12.6949 30.8179 13.1447 30.5048 13.8119C30.4314 13.9683 30.3524 14.1366 30.2666 14.3142C29.9823 14.8933 29.6534 15.5877 29.2872 16.361Z" fill="#ED1C24"/>
<path fill-rule="evenodd" clip-rule="evenodd" d="M111.224 25.0852C111.224 25.0852 106.203 29.8494 104.441 27.3136C113.924 22.3759 116.198 16.1241 113.281 14.3726C108.969 11.9858 97.1528 16.2542 98.4911 27.9452C97.902 28.294 96.659 28.9595 96.659 28.9595L97.5264 31.2804C97.5264 31.2804 99.1755 30.3038 99.6197 30.0021L99.7125 30.0762C101.044 31.1397 101.777 31.7244 103.877 31.7649C108.445 31.8592 112.383 26.848 112.383 26.848L111.224 25.0852ZM110.334 16.6577C111.411 17.3967 109.236 21.158 104.125 25.1625C103.919 24.8118 104.334 22.5399 105.699 20.155C107.055 17.7738 109.265 15.9148 110.334 16.6577Z" fill="#ED1C24"/>
<path d="M118.989 31.7631C116.261 31.6895 114.993 29.5006 114.679 28.7767C111.633 21.2968 120.053 14.5955 120.429 14.2963C120.438 14.2895 120.442 14.286 120.442 14.2859L125.734 14.2878C125.734 14.2878 117.935 20.3831 119.05 26.0316C119.937 29.4724 123.172 27.8001 124.958 23.9068C125.304 23.1395 127.465 17.9529 126.104 17.9529C124.745 17.9529 123.332 20.6112 123.332 20.6112L121.845 19.1388C121.845 19.1388 124.846 14.8967 128.278 13.7618C128.693 13.6354 131.164 13.1358 131.193 16.6331C131.303 18.2677 129.73 26.9215 123.311 30.383C121.397 31.4124 120.141 31.7989 118.989 31.7631Z" fill="#ED1C24"/>
<path d="M130.093 45.6212H128.936V44.3127H130.093V45.6212Z" fill="#ED1C24"/>
<path d="M121.668 45.6212H120.814V41.0671H122.021L123.986 44.6526L125.951 41.0671H127.118V45.6212H126.23V42.0445L124.253 45.6493H123.624L121.668 42.0815V45.6212Z" fill="#ED1C24"/>
<path fill-rule="evenodd" clip-rule="evenodd" d="M114.117 43.3441C114.117 41.9882 115.233 40.9562 116.711 40.9562C118.178 40.9562 119.305 41.9882 119.305 43.3441C119.305 44.7001 118.178 45.7321 116.711 45.7321C115.233 45.7321 114.117 44.7001 114.117 43.3441ZM115.054 43.3441C115.054 44.2388 115.723 44.9572 116.711 44.9572C117.698 44.9572 118.367 44.2476 118.367 43.3441C118.367 42.4407 117.698 41.731 116.711 41.731C115.723 41.731 115.054 42.4495 115.054 43.3441Z" fill="#ED1C24"/>
<path fill-rule="evenodd" clip-rule="evenodd" d="M108.259 45.6212V46.993H107.451V44.8639H108.04C108.349 44.4959 108.499 43.9059 108.639 42.7718L108.848 41.0671H112.5V44.8657H113.398V46.9948H112.59V45.6212H108.259ZM108.919 44.8639H111.591V41.8209H109.576L109.447 42.8352C109.308 43.8954 109.187 44.4765 108.919 44.8639Z" fill="#ED1C24"/>
<path fill-rule="evenodd" clip-rule="evenodd" d="M106.359 41.0671V45.6212H105.452V43.9711H103.984L102.787 45.6212H101.739L103.046 43.8601C102.247 43.6858 101.889 43.1592 101.889 42.4865C101.889 41.7486 102.427 41.0671 103.645 41.0671H106.359ZM102.848 42.4848C102.848 42.9373 103.166 43.2138 103.755 43.2138V43.2121H105.452V41.8209H103.755C103.168 41.8209 102.848 42.0427 102.848 42.4848Z" fill="#ED1C24"/>
<path fill-rule="evenodd" clip-rule="evenodd" d="M95.5401 45.6212H94.5718V39.0754H98.2543C99.8211 39.0754 100.639 39.7657 100.639 40.965C100.639 42.1167 99.8211 42.8916 98.2543 42.8916H95.5401V45.6212ZM99.64 40.9844C99.64 40.3011 99.1902 39.9049 98.2829 39.9049V39.9066H95.5382V42.0639H98.2829C99.1902 42.0639 99.64 41.6113 99.64 40.9844Z" fill="#ED1C24"/>
<path d="M89.9553 45.6212H88.7983V44.3127H89.9553V45.6212Z" fill="#ED1C24"/>
<path fill-rule="evenodd" clip-rule="evenodd" d="M82.1652 43.3441C82.1652 41.9882 83.2822 40.9562 84.7594 40.9562C86.2252 40.9562 87.3535 41.9882 87.3535 43.3441C87.3535 44.7001 86.2271 45.7321 84.7594 45.7321C83.2822 45.7321 82.1652 44.7001 82.1652 43.3441ZM83.103 43.3441C83.103 44.2388 83.7721 44.9572 84.7594 44.9572C85.7467 44.9572 86.4158 44.2476 86.4158 43.3441C86.4158 42.4407 85.7467 41.731 84.7594 41.731C83.7721 41.731 83.103 42.4495 83.103 43.3441Z" fill="#ED1C24"/>
<path fill-rule="evenodd" clip-rule="evenodd" d="M78.5914 45.7321C77.4935 45.7321 76.916 45.0946 76.7959 44.8833V47.6868H75.8981V41.0671H76.7959V41.8508C76.916 41.6201 77.484 40.9562 78.5914 40.9562C79.9085 40.9562 81.0159 41.8508 81.0159 43.3441C81.0159 44.8569 79.9085 45.7321 78.5914 45.7321ZM78.4313 41.731C77.4344 41.731 76.7749 42.4319 76.7749 43.3441C76.7749 44.2476 77.4344 44.9572 78.4313 44.9572C79.4281 44.9572 80.0876 44.2476 80.0876 43.3441C80.0876 42.4319 79.4301 41.731 78.4313 41.731Z" fill="#ED1C24"/>
<path d="M72.6655 45.6212H71.7582V41.8226H69.7625V41.0671H74.6611V41.8226H72.6655V45.6212Z" fill="#ED1C24"/>
<path d="M69.0554 42.4865H68.1367C68.0566 42.3386 67.6773 41.731 66.7014 41.731C65.7922 41.731 65.1441 42.4495 65.1441 43.3441C65.1441 44.2388 65.7922 44.9572 66.7109 44.9572C67.7078 44.9572 68.0776 44.3585 68.1576 44.2018H69.0554C68.9963 44.5152 68.4778 45.7321 66.7109 45.7321C65.3043 45.7321 64.2064 44.6896 64.2064 43.3441C64.2064 41.9987 65.2947 40.9562 66.7014 40.9562C68.4759 40.9562 68.9849 42.1449 69.0554 42.4865Z" fill="#ED1C24"/>
<path d="M62.7006 45.6212H61.7933V41.0671H62.7006V45.6212Z" fill="#ED1C24"/>
<path fill-rule="evenodd" clip-rule="evenodd" d="M57.5028 42.5323H58.999C60.3657 42.5323 60.9642 43.1962 60.9661 44.0626C60.9661 44.8657 60.3676 45.6212 59.0104 45.6212H56.5955V41.0671H57.5028V42.5323ZM60.0054 44.0626C60.0054 43.5836 59.6166 43.2878 58.898 43.2878H57.5008V44.8639H58.898C59.6166 44.8639 60.0054 44.6068 60.0054 44.0626Z" fill="#ED1C24"/>
<path fill-rule="evenodd" clip-rule="evenodd" d="M49.9262 41.7486H52.4498C54.0966 41.7486 54.9543 42.5411 54.9543 43.7122C54.9543 44.9203 54.0966 45.6212 52.4498 45.6212H48.9579V39.0754H54.4073V39.9137H49.9262V41.7486ZM53.9575 43.6928C53.9575 43.0395 53.4676 42.5781 52.4803 42.5781H49.9262V44.79H52.4803C53.4676 44.79 53.9575 44.3937 53.9575 43.6928Z" fill="#ED1C24"/>
<path d="M44.3414 45.6212H43.1844V44.3127H44.3414V45.6212Z" fill="#ED1C24"/>
<path d="M37.6912 45.6212H36.7839V41.0671H37.6912V42.9285H40.455V41.0671H41.3623V45.6212H40.455V43.6858H37.6912V45.6212Z" fill="#ED1C24"/>
<path d="M31.1324 45.6212H30.2251V41.0671H31.1324V44.4959L33.9953 41.0671H34.9026V45.6212H33.9953V42.1643L31.1324 45.6212Z" fill="#ED1C24"/>
<path d="M31.9501 39.0102C31.9501 39.3431 32.1407 39.6742 32.5791 39.6742C33.0194 39.6742 33.2081 39.3519 33.2081 39.0102V38.8535H33.9667V39.0279C33.9667 39.764 33.5074 40.3363 32.5791 40.3363C31.6509 40.3363 31.1915 39.7657 31.1915 39.0279V38.8535H31.9501V39.0102Z" fill="#ED1C24"/>
<path fill-rule="evenodd" clip-rule="evenodd" d="M27.4385 45.6212V44.8375C27.3203 45.0682 26.8114 45.7321 25.6925 45.7321C24.3945 45.7321 23.2871 44.8463 23.2871 43.3441C23.2871 41.8596 24.3945 40.9562 25.6925 40.9562C26.7695 40.9562 27.3184 41.5831 27.4385 41.8226V41.0671H28.3458V45.6212H27.4385ZM25.8622 44.9572C26.8209 44.9572 27.4595 44.2476 27.4595 43.3441C27.4595 42.4302 26.8209 41.731 25.8622 41.731C24.8729 41.731 24.2249 42.4319 24.2249 43.3441C24.2249 44.2476 24.8748 44.9572 25.8622 44.9572Z" fill="#ED1C24"/>
<path d="M16.9018 44.9291C17.5804 44.9291 17.7195 44.635 17.8301 43.5924L18.0988 41.0654H21.768V45.6194H20.8607V41.8209H18.825L18.6363 43.647C18.4876 45.0488 18.1083 45.6846 17.0505 45.6846H16.7817V44.9291H16.9018Z" fill="#ED1C24"/>
<path d="M11.8679 45.6212H10.9606V41.0671H11.8679V42.9285H14.6317V41.0671H15.539V45.6212H14.6317V43.6858H11.8679V45.6212Z" fill="#ED1C24"/>
<path fill-rule="evenodd" clip-rule="evenodd" d="M9.33284 42.3492C9.33284 44.2564 7.75653 45.7321 5.67131 45.7321C3.55558 45.7321 2.00786 44.274 2.00977 42.3492C2.00977 40.442 3.57655 38.9662 5.67131 38.9662C7.75653 38.9662 9.33284 40.442 9.33284 42.3492ZM3.00664 42.3474C3.00664 43.7756 4.07403 44.9009 5.67131 44.9009C7.26668 44.9009 8.33597 43.758 8.33597 42.3474C8.33597 40.9562 7.26858 39.7939 5.67131 39.7939C4.07403 39.7939 3.00664 40.9456 3.00664 42.3474Z" fill="#ED1C24"/>
</svg>
